<svg width="44" height="42" viewBox="0 0 44 42" fill="none" xmlns="http://www.w3.org/2000/svg">
<path d="M19.3279 2.23608C20.4413 0.0543243 23.5587 0.0543257 24.6721 2.23608L29.1003 10.9131C29.5362 11.7672 30.3542 12.3615 31.3012 12.5121L40.9219 14.0422C43.341 14.427 44.3043 17.3918 42.5734 19.125L35.6895 26.0177C35.0118 26.6962 34.6994 27.6578 34.8488 28.6051L36.3665 38.2277C36.7482 40.6472 34.2261 42.4796 32.0429 41.369L23.3603 36.952C22.5055 36.5172 21.4945 36.5172 20.6397 36.952L11.9571 41.369C9.7739 42.4796 7.25184 40.6472 7.63346 38.2277L9.15121 28.6051C9.30062 27.6578 8.98818 26.6962 8.31053 26.0177L1.4266 19.125C-0.304305 17.3918 0.659041 14.427 3.07808 14.0422L12.6988 12.5121C13.6458 12.3615 14.4638 11.7672 14.8997 10.9131L19.3279 2.23608Z" fill="currentColor"/>
</svg>
